<svg id="Capa_1" enable-background="new 0 0 512 512" height="24px" viewBox="0 0 512 512" width="24px" xmlns="http://www.w3.org/2000/svg"><g><path d="m484.86 0h-457.72c-8.284 0-15 6.716-15 15v482c0 8.284 6.716 15 15 15h457.72c8.284 0 15-6.716 15-15v-482c0-8.284-6.716-15-15-15zm-15 482h-198.86v-18.706c0-8.284-6.716-15-15-15s-15 6.716-15 15v18.706h-198.86v-452h198.86v18.706c0 8.284 6.716 15 15 15s15-6.716 15-15v-18.706h198.86z"/><path d="m256 93.706c-8.284 0-15 6.716-15 15v28.57c0 8.284 6.716 15 15 15s15-6.716 15-15v-28.57c0-8.285-6.716-15-15-15z"/><path d="m256 182.275c-8.284 0-15 6.716-15 15v28.57c0 8.284 6.716 15 15 15s15-6.716 15-15v-28.57c0-8.284-6.716-15-15-15z"/><path d="m256 270.845c-8.284 0-15 6.716-15 15v28.57c0 8.284 6.716 15 15 15s15-6.716 15-15v-28.57c0-8.284-6.716-15-15-15z"/><path d="m256 359.725c-8.284 0-15 6.716-15 15v28.57c0 8.284 6.716 15 15 15s15-6.716 15-15v-28.57c0-8.285-6.716-15-15-15z"/><path d="m205.625 235.43-12.375-125.334c-.758-7.676-7.214-13.526-14.927-13.526h-73.506c-7.713 0-14.169 5.85-14.927 13.526l-12.374 125.334c-3.193 32.332 18.562 61.119 49.054 67.468v82.532h-19.878c-8.284 0-15 6.716-15 15s6.716 15 15 15h69.757c8.284 0 15-6.716 15-15s-6.716-15-15-15h-19.879v-82.532c30.477-6.346 52.249-35.12 49.055-67.468zm-98.255 2.947 11.039-111.808h46.323l11.039 111.808c1.79 18.129-11.444 34.297-29.3 35.741h-.001c-3.25.264-6.546.263-9.798 0-17.855-1.444-31.092-17.608-29.302-35.741z"/><path d="m316 235.43h108.86c8.284 0 15-6.716 15-15v-108.86c0-8.284-6.716-15-15-15h-108.86c-8.284 0-15 6.716-15 15v108.86c0 8.284 6.716 15 15 15zm15-108.86h78.86v78.86h-78.86z"/><path d="m316 295.43h108.86c8.284 0 15-6.716 15-15s-6.716-15-15-15h-108.86c-8.284 0-15 6.716-15 15s6.716 15 15 15z"/><path d="m316 355.43h108.86c8.284 0 15-6.716 15-15s-6.716-15-15-15h-108.86c-8.284 0-15 6.716-15 15s6.716 15 15 15z"/><path d="m424.86 385.43h-108.86c-8.284 0-15 6.716-15 15s6.716 15 15 15h108.86c8.284 0 15-6.716 15-15s-6.716-15-15-15z"/></g></svg>
